PathFileType	3	(X/Y/Z)	D:\minhoCalibration\240510\subject1_KPNP\preferred\preferred02.trc
DataRate	CameraRate	NumFrames	NumMarkers	Units	OrigDataRate	OrigDataStartFrame	OrigNumFrames
200.0	200.0	21	10	mm	200.0	302	236	
Frame#	Time	Left_Ankle_Outer1			Left_Ankle_Inner1			Left_Knee_Outer1			Left_Knee_Inner1			Left_Wrist1			Right_Wrist1			Right_Knee_Inner1			Right_Knee_Outer1			Right_Ankle_Inner1			Right_Ankle_Outer1			
		X1	Y1	Z1	X2	Y2	Z2	X3	Y3	Z3	X4	Y4	Z4	X5	Y5	Z5	X6	Y6	Z6	X7	Y7	Z7	X8	Y8	Z8	X9	Y9	Z9	X10	Y10	Z10	
302	1.5	-503.39902	118.24306	-576.69421	-547.27429	132.19101	-542.20605	-342.80597	534.30066	-461.53195	-446.11258	516.68164	-423.37927	-330.03818	995.6377	-599.72675	-665.66748	1060.0496	-492.10687	-491.61847	744.15967	-163.10011	-608.09192	765.54523	-161.03616	-615.45764	315.50101	-208.74316	-710.31488	322.03726	-207.96333
303	1.505	-502.58063	118.13812	-577.24573	-546.91949	131.8976	-542.70404	-342.88718	533.77356	-459.77872	-445.97528	516.35394	-422.82321	-328.91656	995.36829	-598.07684	-665.85413	1057.0701	-494.62357	-498.21066	733.31403	-168.52234	-614.83557	754.45178	-168.80643	-618.46466	306.58023	-231.24857	-713.94299	312.39603	-233.28464
304	1.51	-501.92975	117.77676	-577.32666	-546.49976	131.52881	-543.2746	-343.00293	533.3429	-457.94409	-446.6528	515.96393	-422.27689	-327.9548	995.16888	-596.2287	-666.10547	1054.255	-497.15744	-504.51041	722.41797	-174.71967	-621.05096	743.68152	-177.3631	-621.94055	297.78458	-253.90744	-717.15607	303.76144	-257.85443
305	1.515	-501.22659	117.4957	-577.46887	-546.06366	131.24107	-543.69623	-343.37183	532.85632	-456.00211	-447.38177	515.53241	-421.84799	-326.95825	994.98535	-594.34705	-666.38422	1052.4832	-498.92813	-510.68967	711.54407	-181.36208	-627.41168	733.41943	-185.6279	-625.05011	289.64136	-275.73834	-720.2442	295.90985	-282.81982
306	1.52	-500.48273	117.172	-577.57257	-545.56573	130.90506	-544.12927	-343.776	532.31818	-453.92834	-448.18625	515.20892	-421.14246	-326.01294	994.86707	-592.36145	-666.49762	1048.9535	-503.17084	-516.70868	700.69989	-188.60722	-633.52924	723.49481	-194.02486	-628.76849	282.52158	-298.2645	-723.14038	288.64117	-306.98053
307	1.525	-499.71609	116.91103	-577.70502	-545.33276	130.94232	-545.39307	-344.10681	532.00867	-451.87823	-449.38181	514.61951	-420.57077	-325.16037	994.74225	-590.25787	-667.08295	1046.4774	-505.66925	-522.74841	690.03516	-196.13681	-639.15546	713.36646	-203.38698	-631.71619	275.12488	-321.90265	-725.92798	282.14484	-331.43179
308	1.53	-498.92493	116.64095	-577.7876	-545.05212	130.47717	-546.1947	-344.41837	531.70331	-449.74835	-449.91202	514.48529	-420.06815	-324.16562	994.75848	-588.14209	-667.57172	1044.0139	-508.40176	-528.34442	679.50458	-204.35794	-644.64624	704.01263	-212.59959	-634.25641	269.67538	-342.72495	-728.3526	276.35144	-355.60342
309	1.535	-498.12704	116.40497	-577.95959	-544.51105	130.1353	-546.7616	-344.83505	531.4364	-447.71338	-450.85709	514.25818	-419.43121	-323.28082	994.84235	-585.89874	-668.0564	1041.5498	-511.17242	-533.84515	669.26782	-212.9926	-649.95239	694.48126	-222.74918	-637.21106	263.16373	-366.47586	-730.99896	271.21088	-379.48907
310	1.54	-497.40195	116.02312	-577.8009	-543.92468	129.83533	-547.23755	-345.33142	531.03674	-445.65146	-451.76865	513.927	-418.87762	-322.52206	994.89172	-583.54468	-667.18573	1038.5714	-516.4245	-539.00739	659.40009	-221.67813	-655.25397	685.28253	-232.45549	-639.11414	258.25732	-388.56497	-732.94531	266.5318	-402.9353
311	1.545	-496.53656	115.87346	-578.21985	-543.42169	129.57138	-547.72424	-345.80093	530.77161	-443.65884	-453.12234	513.52228	-418.11612	-321.78284	994.97058	-581.09644	-667.68677	1036.5074	-519.27057	-544.57288	649.83667	-231.14243	-660.4082	676.34454	-242.67465	-641.30212	253.24744	-409.5481	-734.74512	262.25244	-426.10211
312	1.55	-495.8215	115.77547	-578.41382	-542.97498	129.35399	-548.21777	-346.34561	530.46167	-441.6701	-453.70358	513.33905	-417.80377	-321.14264	995.06262	-578.57385	-669.6792	1034.3372	-520.17957	-549.76105	640.54822	-240.758	-665.49371	667.58368	-253.24055	-643.04535	248.67033	-432.17242	-736.18359	258.45023	-449.09625
313	1.555	-495.18927	115.531	-578.59045	-542.5174	128.99362	-548.68597	-347.1344	530.15704	-439.83295	-454.82562	512.87286	-417.28979	-320.38828	995.18652	-576.09344	-670.05341	1032.9058	-522.0462	-554.94446	631.52692	-250.70656	-670.53369	658.99139	-264.24893	-644.96997	245.40468	-453.19485	-737.38153	255.12982	-471.80884
314	1.56	-494.67853	115.37988	-578.68774	-541.94757	128.65657	-548.5802	-347.64279	529.79675	-438.05518	-455.51712	512.79187	-416.85248	-319.57199	995.19379	-573.50299	-670.43665	1030.1207	-527.23041	-560.07214	622.8847	-260.91135	-675.51978	650.81317	-275.35333	-645.37378	241.9969	-474.45987	-738.23279	252.21428	-494.24323
315	1.565	-494.20709	115.2952	-578.75116	-541.58374	128.41205	-548.84192	-347.76102	529.56653	-436.36084	-455.78665	512.64319	-417.36935	-319.24777	995.47351	-570.82166	-670.80304	1028.8081	-530.13232	-565.02692	614.75403	-270.72021	-680.39789	643.09943	-286.78531	-646.66113	238.6506	-494.82239	-738.73596	249.66245	-516.29523
316	1.57	-493.86975	115.16177	-578.73566	-541.45331	128.31908	-549.02405	-348.21216	529.26111	-434.76291	-457.23453	511.91562	-416.60358	-318.64709	995.50201	-568.3136	-670.89563	1026.0188	-534.19116	-570.24286	606.83398	-281.61743	-685.1748	635.28094	-298.60788	-646.9057	236.01743	-515.604	-738.92737	247.3708	-538.01794
317	1.575	-493.64639	115.10589	-578.66748	-541.47052	128.35187	-549.31934	-348.90082	528.88812	-433.2352	-457.20966	512.33374	-415.8486	-318.1521	995.67279	-565.92102	-671.31909	1022.7091	-538.20447	-575.45569	599.26373	-292.43057	-690.22015	628.41162	-310.36377	-647.52527	233.2744	-535.07275	-738.78223	245.33417	-559.38489
318	1.58	-493.56726	115.09235	-578.58411	-541.41827	128.16319	-549.18225	-349.27667	528.6189	-431.78033	-457.62711	512.10291	-415.58829	-318.04474	995.73053	-563.69086	-670.94427	1020.8232	-541.61731	-580.55518	592.35364	-303.05731	-694.87469	620.99567	-323.03293	-647.51184	231.3848	-554.09625	-738.20563	243.75314	-580.6333
319	1.585	-493.56332	115.08204	-578.42688	-541.43311	128.03432	-548.97955	-349.39386	528.44092	-430.40808	-458.83737	511.42072	-415.10242	-317.24268	995.98584	-561.50464	-670.89819	1018.0358	-545.47363	-585.92694	585.79047	-313.89062	-699.9068	614.60211	-335.63965	-647.28735	228.68407	-573.48712	-737.18677	242.21283	-601.29083
320	1.59	-493.66495	115.15318	-578.29028	-541.56287	128.03304	-548.83588	-349.81488	528.14435	-429.047	-460.03372	511.67841	-413.21298	-317.0864	995.992	-559.09875	-671.11987	1016.2214	-549.69641	-591.35437	579.68372	-324.58755	-704.36737	608.44781	-348.77588	-646.50446	226.9957	-591.39423	-735.83551	240.8875	-621.64441
321	1.595	-493.77118	115.22586	-578.11395	-541.66309	128.08008	-548.73608	-350.04025	527.97571	-427.94135	-459.78058	511.22485	-413.92407	-316.98221	995.89508	-556.9165	-671.21948	1015.031	-554.01801	-596.92493	574.03271	-335.39453	-709.3595	602.83942	-362.00064	-645.3269	224.83603	-609.82385	-734.07758	239.77528	-641.41357
322	1.6	-493.67191	115.37881	-578.02118	-541.74768	128.11166	-548.5365	-350.56168	527.82495	-426.89145	-460.10495	511.22339	-413.33215	-316.93225	995.73474	-554.83124	-671.60065	1013.142	-558.20166	-602.5802	568.75635	-346.10657	-713.83063	597.33734	-375.6673	-643.95172	223.49008	-626.9281	-731.97522	238.73689	-660.74689
